<svg width="40" height="13" viewBox="0 0 40 13" fill="none" xmlns="http://www.w3.org/2000/svg">
<path d="M15.0001 1.25H4.66506C4.3899 0.773396 3.96515 0.400906 3.45671 0.190302C2.94826 -0.0203026 2.38454 -0.0572508 1.85295 0.0851865C1.32137 0.227624 0.85164 0.541487 0.516617 0.978097C0.181594 1.41471 0 1.94967 0 2.5C0 3.05034 0.181594 3.58529 0.516617 4.0219C0.85164 4.45851 1.32137 4.77238 1.85295 4.91481C2.38454 5.05725 2.94826 5.0203 3.45671 4.8097C3.96515 4.5991 4.3899 4.22661 4.66506 3.75H11.3351C8.11564 5.78254 5.70972 8.87839 4.53506 12.5H6.25006C6.55756 12.5 6.86006 12.5375 7.14506 12.6075C7.8375 10.7949 8.90462 9.14871 10.2767 7.77664C11.6488 6.40456 13.2949 5.33744 15.1076 4.645C15.0359 4.35206 14.9999 4.05157 15.0001 3.75V1.25ZM24.8926 4.645C24.9643 4.35207 25.0003 4.05157 25.0001 3.75V1.25H35.3351C35.6102 0.773396 36.035 0.400906 36.5434 0.190302C37.0519 -0.0203026 37.6156 -0.0572508 38.1472 0.0851865C38.6788 0.227624 39.1485 0.541487 39.4835 0.978097C39.8185 1.41471 40.0001 1.94967 40.0001 2.5C40.0001 3.05034 39.8185 3.58529 39.4835 4.0219C39.1485 4.45851 38.6788 4.77238 38.1472 4.91481C37.6156 5.05725 37.0519 5.0203 36.5434 4.8097C36.035 4.5991 35.6102 4.22661 35.3351 3.75H28.6651C31.8845 5.78254 34.2904 8.87839 35.4651 12.5H33.7501C33.4426 12.5 33.1426 12.5375 32.8551 12.6075C32.1626 10.7949 31.0955 9.14871 29.7234 7.77664C28.3514 6.40456 26.7052 5.33744 24.8926 4.645Z" fill="#EAB308"/>
</svg>
